# xmcd
#
# Track frame offsets: 
#        150
#        14360
#        28217
#        39642
#        53822
#        65385
#        75620
#        87745
#        100772
#        114745
#        127352
#        139587
#        152097
#        164195
#        176590
#        187807
#        197972
#        210672
#        223127
#        234337
#        245560
#        258192
#        270655
#        283270
#        297152
#        310217
#        322820
#
# Disc length: 4466 seconds
#
# Revision: 6
# Processed by: cddbd v1.5.2PL0 Copyright (c) Steve Scherf et al.
# Submitted via: ExactAudioCopy v1.1
#
DISCID=9b11701b
DTITLE=Various Artist - Mercury Blues 'N' Rhythm Story 1945-1955 - Di
DTITLE=sc 6
DYEAR=1996
DGENRE=R&B
TTITLE0=Johnny Otis - Call Operator 210 (mono)
TTITLE1=Johnny Otis - Baby Baby Blues (mono)
TTITLE2=Johnny Otis - Gypsy Blues (mono)
TTITLE3=Johnny Otis - Sugar Sugar (mono)
TTITLE4=Johnny Otis - Last Mile (mono)
TTITLE5=Johnny Otis - The Candle's Burning Low (mono)
TTITLE6=Johnny Otis - The Love Bug Boogie (That's The Way It's Gonna B
TTITLE6=e) (mono)
TTITLE7=Johnny Otis - Brown Skin Butterball (mono)
TTITLE8=Johnny Otis - The Game Is Over (mono)
TTITLE9=Pat Valdelar - Keep Your Hand On Your Heart (mono)
TTITLE10=Pat Valdelar - Rock Me Baby (mono)
TTITLE11=Ray Johnson - Boogie The Blues (mono)
TTITLE12=Ray Johnson - House Of Blues (mono)
TTITLE13=Ray Johnson - I'll Never Let You Go (mono)
TTITLE14=Ray Johnson - Smilin' Blues (mono)
TTITLE15=Herbert 'Woo Woo' Moore - Something's Wrong (mono)
TTITLE16=Herbert 'Woo Woo' Moore - Five Long Letters (mono)
TTITLE17=Mel Walker - Unlucky Man (mono)
TTITLE18=Mel Walker - My Baby (mono)
TTITLE19=Mel Walker - Another Sad Night (mono)
TTITLE20=Mel Walker - Feelin' Mighty Lonesome (mono)
TTITLE21=Mel Walker - I Have Decided (mono)
TTITLE22=Joe Liggins - They Were Doing The Mambo (mono)
TTITLE23=Joe Liggins - Honeydrippin' Daddy (mono)
TTITLE24=Joe Liggins - Yeah, Yeah, Yeah (mono)
TTITLE25=Rollee McGill - In My Neighborhood (mono)
TTITLE26=Rollee McGill - Rhythm Rockin' Blues (mono)
EXTD=
EXTT0=
EXTT1=
EXTT2=
EXTT3=
EXTT4=
EXTT5=
EXTT6=
EXTT7=
EXTT8=
EXTT9=
EXTT10=
EXTT11=
EXTT12=
EXTT13=
EXTT14=
EXTT15=
EXTT16=
EXTT17=
EXTT18=
EXTT19=
EXTT20=
EXTT21=
EXTT22=
EXTT23=
EXTT24=
EXTT25=
EXTT26=
PLAYORDER=
